G75*
%MOIN*%
%OFA0B0*%
%FSLAX24Y24*%
%IPPOS*%
%LPD*%
%AMOC8*
5,1,8,0,0,1.08239X$1,22.5*
%
%ADD10R,0.0255X0.0058*%
%ADD11R,0.0058X0.0255*%
%ADD12R,0.0570X0.0452*%
%ADD13R,0.0924X0.0137*%
%ADD14R,0.0924X0.0727*%
%ADD15R,0.0452X0.0570*%
%ADD16R,0.0452X0.0531*%
%ADD17R,0.0531X0.0452*%
%ADD18R,0.0412X0.0412*%
%ADD19R,0.0334X0.0491*%
%ADD20R,0.0491X0.0334*%
%ADD21R,0.0688X0.0373*%
%ADD22R,0.0294X0.0216*%
%ADD23R,0.0216X0.0294*%
%ADD24R,0.0216X0.0038*%
%ADD25C,0.0022*%
D10*
X008658Y007899D03*
X008658Y008096D03*
X008658Y008293D03*
X008658Y008490D03*
X008658Y008687D03*
X008658Y008884D03*
X008658Y009081D03*
X008658Y009277D03*
X008658Y009474D03*
X008658Y009671D03*
X008658Y009868D03*
X011336Y009868D03*
X011336Y009671D03*
X011336Y009474D03*
X011336Y009277D03*
X011336Y009081D03*
X011336Y008884D03*
X011336Y008687D03*
X011336Y008490D03*
X011336Y008293D03*
X011336Y008096D03*
X011336Y007899D03*
D11*
X010981Y007545D03*
X010784Y007545D03*
X010587Y007545D03*
X010391Y007545D03*
X010194Y007545D03*
X009997Y007545D03*
X009800Y007545D03*
X009603Y007545D03*
X009406Y007545D03*
X009210Y007545D03*
X009013Y007545D03*
X009013Y010222D03*
X009210Y010222D03*
X009406Y010222D03*
X009603Y010222D03*
X009800Y010222D03*
X009997Y010222D03*
X010194Y010222D03*
X010391Y010222D03*
X010587Y010222D03*
X010784Y010222D03*
X010981Y010222D03*
D12*
X007370Y006456D03*
X007370Y005708D03*
X007731Y004748D03*
X007731Y004000D03*
X005180Y006522D03*
X005180Y007270D03*
X016184Y005794D03*
X016184Y005046D03*
D13*
X003664Y007863D03*
X003664Y008178D03*
X003664Y008493D03*
X003664Y008807D03*
X003664Y009122D03*
D14*
X003664Y010264D03*
X001499Y010264D03*
X001499Y006721D03*
X003664Y006721D03*
D15*
X004812Y003950D03*
X005560Y003950D03*
X008662Y004734D03*
X009410Y004734D03*
X005636Y008636D03*
X004888Y008636D03*
X004893Y009493D03*
X005641Y009493D03*
X009019Y013195D03*
X009767Y013195D03*
X012406Y013036D03*
X013154Y013036D03*
X010493Y016079D03*
X009745Y016079D03*
X008817Y016101D03*
X008069Y016101D03*
X017899Y016339D03*
X018647Y016339D03*
D16*
X012355Y016091D03*
X011607Y016091D03*
X010612Y014761D03*
X009864Y014761D03*
X007538Y008795D03*
X006790Y008795D03*
D17*
X006480Y010183D03*
X006480Y010931D03*
X009419Y011306D03*
X009419Y012054D03*
X012424Y010617D03*
X012424Y009868D03*
X008710Y006441D03*
X008710Y005693D03*
X004155Y015368D03*
X004155Y016117D03*
X013647Y016158D03*
X013647Y016906D03*
D18*
X000839Y016406D03*
X000839Y015579D03*
D19*
X004432Y005656D03*
X005180Y005656D03*
X004806Y004790D03*
X013546Y005892D03*
X014294Y005892D03*
X013920Y005026D03*
X015577Y015538D03*
X015951Y016404D03*
X015203Y016404D03*
D20*
X014708Y004628D03*
X014708Y003880D03*
X014806Y003120D03*
X014806Y002372D03*
X015672Y002746D03*
X015574Y004254D03*
X003363Y015743D03*
X002497Y016117D03*
X002497Y015368D03*
D21*
X010364Y005916D03*
X010364Y005010D03*
X011821Y005010D03*
X011821Y005916D03*
D22*
X012589Y005906D03*
X012589Y005395D03*
D23*
X010868Y004452D03*
X010356Y004452D03*
D24*
X011587Y014258D03*
X011587Y014455D03*
X011587Y014652D03*
X011587Y014849D03*
X011587Y015046D03*
X011587Y015243D03*
X012750Y015243D03*
X012750Y015046D03*
X012750Y014849D03*
X012750Y014652D03*
X012750Y014455D03*
X012750Y014258D03*
D25*
X012377Y014291D02*
X012377Y015209D01*
X012377Y014291D02*
X011959Y014291D01*
X011959Y015209D01*
X012377Y015209D01*
X012377Y014312D02*
X011959Y014312D01*
X011959Y014333D02*
X012377Y014333D01*
X012377Y014354D02*
X011959Y014354D01*
X011959Y014375D02*
X012377Y014375D01*
X012377Y014396D02*
X011959Y014396D01*
X011959Y014417D02*
X012377Y014417D01*
X012377Y014438D02*
X011959Y014438D01*
X011959Y014459D02*
X012377Y014459D01*
X012377Y014480D02*
X011959Y014480D01*
X011959Y014501D02*
X012377Y014501D01*
X012377Y014522D02*
X011959Y014522D01*
X011959Y014543D02*
X012377Y014543D01*
X012377Y014564D02*
X011959Y014564D01*
X011959Y014585D02*
X012377Y014585D01*
X012377Y014606D02*
X011959Y014606D01*
X011959Y014627D02*
X012377Y014627D01*
X012377Y014648D02*
X011959Y014648D01*
X011959Y014669D02*
X012377Y014669D01*
X012377Y014690D02*
X011959Y014690D01*
X011959Y014711D02*
X012377Y014711D01*
X012377Y014732D02*
X011959Y014732D01*
X011959Y014753D02*
X012377Y014753D01*
X012377Y014774D02*
X011959Y014774D01*
X011959Y014795D02*
X012377Y014795D01*
X012377Y014816D02*
X011959Y014816D01*
X011959Y014837D02*
X012377Y014837D01*
X012377Y014858D02*
X011959Y014858D01*
X011959Y014879D02*
X012377Y014879D01*
X012377Y014900D02*
X011959Y014900D01*
X011959Y014921D02*
X012377Y014921D01*
X012377Y014942D02*
X011959Y014942D01*
X011959Y014963D02*
X012377Y014963D01*
X012377Y014984D02*
X011959Y014984D01*
X011959Y015005D02*
X012377Y015005D01*
X012377Y015026D02*
X011959Y015026D01*
X011959Y015047D02*
X012377Y015047D01*
X012377Y015068D02*
X011959Y015068D01*
X011959Y015089D02*
X012377Y015089D01*
X012377Y015110D02*
X011959Y015110D01*
X011959Y015131D02*
X012377Y015131D01*
X012377Y015152D02*
X011959Y015152D01*
X011959Y015173D02*
X012377Y015173D01*
X012377Y015194D02*
X011959Y015194D01*
M02*
